# xmcd
#
# Track frame offsets: 
#        150
#        17711
#        39981
#        65009
#        77122
#        94717
#        109295
#        126882
#        138131
#        151330
#        165937
#
# Disc length: 2486 seconds
#
# Revision: 0
# Processed by: cddbd v1.5.2PL0 Copyright (c) Steve Scherf et al.
# Submitted via: ExactAudioCopyFreeDBPlugin 1.0
#
DISCID=8309b40b
DTITLE=Mark Knopfler and The Notting Hillbilles - Missing Presumend Havi
DTITLE=ng A Good Time
DYEAR=1900
DGENRE=Country
TTITLE0=Will You Miss Me
TTITLE1=Feel Like Going Home
TTITLE2=The Railroad Worksong
TTITLE3=Bewildered
TTITLE4=Blues Stay Away From Me
TTITLE5=One Way
TTITLE6=Please Baby
TTITLE7=Run Me Down
TTITLE8=That´s Where I Belong
TTITLE9=Weapon Of Prayer
TTITLE10=Your Own Sweet Way
EXTD=
EXTT0=
EXTT1=
EXTT2=
EXTT3=
EXTT4=
EXTT5=
EXTT6=
EXTT7=
EXTT8=
EXTT9=
EXTT10=
PLAYORDER=
